<?xml version="1.0" encoding="utf-8"?>
<!-- Generator: Adobe Illustrator 16.0.0, SVG Export Plug-In . SVG Version: 6.00 Build 0)  -->
<!DOCTYPE svg PUBLIC "-//W3C//DTD SVG 1.1//EN" "http://www.w3.org/Graphics/SVG/1.1/DTD/svg11.dtd">
<svg version="1.1" id="Layer_1" xmlns="http://www.w3.org/2000/svg" xmlns:xlink="http://www.w3.org/1999/xlink" x="0px" y="0px"
	 width="50px" height="50px" viewBox="0 0 50 50" enable-background="new 0 0 50 50" xml:space="preserve">
<path fill="#FFFFFF" d="M24.501,2C12.093,2,2,12.088,2,24.495S12.093,47,24.501,47C36.91,47,47,36.902,47,24.495S36.91,2,24.501,2z
	 M24.501,43.936c-10.719,0-19.434-8.719-19.434-19.437c0-10.712,8.715-19.433,19.434-19.433c10.714,0,19.438,8.72,19.438,19.433
	C43.938,35.217,35.218,43.936,24.501,43.936z M34.648,17.609c0.474,0.702,0.294,1.655-0.408,2.128l-8.879,6.027
	c-0.259,0.174-0.555,0.266-0.86,0.266c-0.136,0-0.269-0.02-0.399-0.051c-0.43-0.121-0.789-0.416-0.982-0.82L16.212,10.72
	c-0.365-0.761-0.043-1.679,0.722-2.043c0.765-0.368,1.676-0.043,2.046,0.721l6.136,12.832l7.402-5.025
	C33.22,16.728,34.173,16.91,34.648,17.609z"/>
</svg>
