<?xml version="1.0" encoding="utf-8"?>
<!-- Generator: Adobe Illustrator 16.0.0, SVG Export Plug-In . SVG Version: 6.00 Build 0)  -->
<!DOCTYPE svg PUBLIC "-//W3C//DTD SVG 1.1//EN" "http://www.w3.org/Graphics/SVG/1.1/DTD/svg11.dtd">
<svg version="1.1" id="Layer_1" xmlns="http://www.w3.org/2000/svg" xmlns:xlink="http://www.w3.org/1999/xlink" x="0px" y="0px"
	 width="250px" height="250px" viewBox="387 125 250 250" enable-background="new 387 125 250 250" xml:space="preserve">
<path id="White_2_" fill="#404040" d="M621.48,127H403.522c-7.47,0-13.522,6.053-13.522,13.522V358.48
	c0,7.464,6.053,13.52,13.522,13.52h117.34v-94.874h-31.928v-36.979h31.928v-27.268c0-31.645,19.325-48.875,47.556-48.875
	c13.523,0,25.144,1.005,28.531,1.456v33.071l-19.578,0.009c-15.353,0-18.327,7.295-18.327,18.001v23.606h36.615l-4.767,36.979
	h-31.848V372h62.436c7.466,0,13.52-6.056,13.52-13.52V140.522C635,133.052,628.944,127,621.48,127z"/>
</svg>
