<?xml version="1.0" encoding="utf-8"?>
<!-- Generator: Adobe Illustrator 16.0.0, SVG Export Plug-In . SVG Version: 6.00 Build 0)  -->
<!DOCTYPE svg PUBLIC "-//W3C//DTD SVG 1.1//EN" "http://www.w3.org/Graphics/SVG/1.1/DTD/svg11.dtd">
<svg version="1.1" id="Layer_1" xmlns="http://www.w3.org/2000/svg" xmlns:xlink="http://www.w3.org/1999/xlink" x="0px" y="0px"
	 width="50px" height="50px" viewBox="475 475 50 50" enable-background="new 475 475 50 50" xml:space="preserve">
<path fill="#FFFFFF" d="M488.408,498.592c-2.092-4.162-2.033-8.869,0.16-12.914c2.19-4.043,6.104-6.66,10.729-7.176
	c0.502-0.057,1.01-0.086,1.51-0.086c7.449,0,13.761,6.279,13.781,13.715c0.008,2.369-0.498,4.521-1.547,6.572
	c-2.656,5.201-5.312,10.404-7.961,15.604l-4.326,8.48l-0.973-1.894c-0.777-1.514-1.533-2.985-2.289-4.463
	c-0.859-1.686-1.719-3.367-2.58-5.049C492.77,507.195,490.555,502.865,488.408,498.592z M491.982,492.287
	c-0.007,4.826,3.905,8.76,8.729,8.77l0,0c4.834,0,8.779-3.887,8.797-8.66c0.008-2.385-0.903-4.62-2.574-6.297
	c-1.639-1.647-3.815-2.559-6.133-2.562h-0.016C495.934,483.537,491.986,487.463,491.982,492.287z"/>
</svg>
