<?xml version="1.0" encoding="utf-8"?>
<!-- Generator: Adobe Illustrator 16.0.0, SVG Export Plug-In . SVG Version: 6.00 Build 0)  -->
<!DOCTYPE svg PUBLIC "-//W3C//DTD SVG 1.0//EN" "http://www.w3.org/TR/2001/REC-SVG-20010904/DTD/svg10.dtd">
<svg version="1.0" id="Layer_1" xmlns="http://www.w3.org/2000/svg" xmlns:xlink="http://www.w3.org/1999/xlink" x="0px" y="0px"
	 width="404.98px" height="404.98px" viewBox="0 0 404.98 404.98" enable-background="new 0 0 404.98 404.98" xml:space="preserve">
<path fill="#424142" d="M392.764,87.748c-13.854,6.14-28.742,10.297-44.369,12.161c15.951-9.56,28.198-24.698,33.966-42.736
	c-14.926,8.851-31.458,15.28-49.052,18.747c-14.092-15.013-34.169-24.398-56.389-24.398c-42.662,0-77.247,34.591-77.247,77.249
	c0,6.053,0.68,11.95,1.999,17.605c-64.201-3.223-121.125-33.979-159.224-80.711C35.801,77.071,31.99,90.343,31.99,104.5
	c0,26.8,13.639,50.441,34.363,64.294c-12.658-0.397-24.569-3.877-34.985-9.663c-0.009,0.324-0.01,0.648-0.01,0.974
	c0,37.428,26.63,68.647,61.97,75.747c-6.485,1.763-13.31,2.706-20.355,2.706c-4.975,0-9.814-0.48-14.532-1.38
	c9.831,30.687,38.359,53.02,72.165,53.647c-26.441,20.716-59.748,33.068-95.941,33.068c-6.235,0-12.384-0.367-18.429-1.08
	c34.19,21.919,74.792,34.708,118.417,34.708c142.086,0,219.788-117.715,219.788-219.796c0-3.349-0.077-6.68-0.223-9.992
	C369.311,116.842,382.408,103.237,392.764,87.748z"/>
<g>
</g>
<g>
</g>
<g>
</g>
<g>
</g>
<g>
</g>
<g>
</g>
</svg>
